<?xml version="1.0" encoding="UTF-8" standalone="no"?>
<!-- Created with Inkscape (http://www.inkscape.org/) -->

<svg
   width="210mm"
   height="297mm"
   viewBox="0 0 210 297"
   version="1.1"
   id="svg1"
   xml:space="preserve"
   inkscape:version="1.3.2 (091e20e, 2023-11-25, custom)"
   sodipodi:docname="lila.svg"
   xmlns:inkscape="http://www.inkscape.org/namespaces/inkscape"
   xmlns:sodipodi="http://sodipodi.sourceforge.net/DTD/sodipodi-0.dtd"
   xmlns="http://www.w3.org/2000/svg"
   xmlns:svg="http://www.w3.org/2000/svg">
  <sodipodi:namedview
     id="namedview1"
     pagecolor="#ffffff"
     bordercolor="#000000"
     borderopacity="0.25"
     inkscape:showpageshadow="2"
     inkscape:pageopacity="0.0"
     inkscape:pagecheckerboard="0"
     inkscape:deskcolor="#d1d1d1"
     inkscape:document-units="mm"
     inkscape:zoom="0.65834035"
     inkscape:cx="397.21096"
     inkscape:cy="356.19874"
     inkscape:window-width="2880"
     inkscape:window-height="1514"
     inkscape:window-x="2869"
     inkscape:window-y="-11"
     inkscape:window-maximized="1"
     inkscape:current-layer="layer1" />
  <defs id="defs1" />
  <g
     inkscape:label="Lager 1"
     inkscape:groupmode="layer"
     id="layer1">
    <path
       style="fill:#000000;stroke-width:0.171858"
       d="m 133.80553,162.91946 c -1.61638,-0.23658 -3.43251,-1.32514 -5.0538,-3.02916 -2.06332,-2.16866 -3.87376,-5.06324 -5.37063,-8.58674 -4.08068,-9.60558 -4.2333,-20.64448 -0.33546,-24.26618 0.18207,-0.1692 0.33167,-0.32799 0.33245,-0.3529 5.9e-4,-0.0249 -0.0782,-0.33049 -0.17551,-0.67904 l -0.1769,-0.63376 -0.27001,0.0266 c -1.39755,0.13748 -2.34107,0.13883 -3.55706,0.005 -4.61494,-0.50755 -8.73759,-3.11679 -11.00136,-6.9628 -0.93934,-1.59589 -1.52137,-3.35612 -1.74503,-5.27754 -0.0926,-0.79537 -0.0555,-2.60289 0.0672,-3.281 0.004,-0.0214 -0.30936,-0.11723 -0.69604,-0.21312 l -0.70307,-0.17435 -0.40547,0.37279 c -3.77883,3.47433 -14.549221,3.49724 -24.600314,0.0523 -3.633062,-1.2452 -6.905778,-2.89946 -9.315178,-4.70855 -1.784328,-1.33977 -2.956439,-2.61654 -3.646555,-3.97215 -1.060227,-2.082669 -0.597245,-4.002935 1.287228,-5.338914 3.0029,-2.128882 8.947633,-2.750372 15.86105,-1.658162 5.502469,0.869295 11.034341,2.763115 15.171261,5.193833 1.484548,0.872283 2.772958,1.820313 3.845638,2.829703 1.39933,1.31676 2.21479,2.508 2.54965,3.72459 0.0606,0.22026 0.13874,0.41501 0.1736,0.43279 0.0898,0.0459 1.35383,0.35828 1.36896,0.33839 0.007,-0.009 0.10364,-0.21494 0.21507,-0.45756 0.87775,-1.91134 2.35316,-3.72405 4.15077,-5.09972 1.81029,-1.385363 4.05552,-2.371863 6.35104,-2.790488 1.02883,-0.18762 1.50633,-0.226377 2.78884,-0.226377 1.31951,0 1.77502,0.03895 2.88975,0.2474 2.00958,0.375711 4.02221,1.209192 5.65267,2.340905 0.23851,0.16556 0.4498,0.30102 0.4695,0.30102 0.0197,0 0.26402,-0.21543 0.54291,-0.47872 l 0.5071,-0.47872 -0.0992,-0.302236 c -0.17285,-0.526699 -0.24029,-1.017405 -0.24027,-1.748413 2e-5,-1.035875 0.12645,-1.83487 0.47284,-2.988375 1.57035,-5.229362 6.68879,-11.666456 12.98567,-16.331179 3.44451,-2.551688 7.11609,-4.406998 10.14446,-5.126179 1.75909,-0.417753 3.45402,-0.444045 4.66268,-0.07232 0.50838,0.156351 0.71942,0.254718 1.16212,0.541646 0.75743,0.490953 1.28965,1.218855 1.57528,2.154433 0.16356,0.535802 0.21654,0.959492 0.21625,1.729643 -0.002,5.112235 -5.30072,12.918682 -12.65498,18.643964 -3.66894,2.856269 -7.61592,4.928166 -10.87411,5.708166 -1.84807,0.44242 -3.52769,0.48433 -4.66237,0.11632 l -0.27993,-0.0908 -0.53838,0.50668 -0.53838,0.50669 0.0958,0.10082 c 0.17433,0.18353 0.65591,0.844 0.94198,1.29187 0.92523,1.4486 1.58653,3.11424 1.88273,4.74204 0.30024,1.65004 0.24885,3.67396 -0.1344,5.29343 -0.84378,3.56542 -3.15521,6.64865 -6.45825,8.61467 -0.4966,0.29558 -1.62477,0.84889 -2.11382,1.03672 -0.15478,0.0595 -0.24298,0.11784 -0.2297,0.15206 0.0119,0.0306 0.10091,0.33624 0.19787,0.6793 l 0.17631,0.62373 0.194,0.0292 c 0.58894,0.0885 1.55493,0.48849 2.30305,0.95368 0.73365,0.4562 1.16196,0.79435 1.94622,1.53657 1.26023,1.19267 2.43849,2.67886 3.50095,4.41588 2.96927,4.85448 4.90997,10.89901 5.45983,17.00514 0.0935,1.03877 0.0789,3.96422 -0.0247,4.91848 -0.49823,4.59241 -2.15255,7.46574 -4.64832,8.07356 -0.43161,0.10511 -1.18353,0.1454 -1.59362,0.0854 z m -11.43658,-44.54838 c 0.97893,-0.21269 1.70406,-0.50364 2.50261,-1.00413 1.57647,-0.98804 2.68256,-2.58981 3.0401,-4.40245 0.10845,-0.54962 0.10594,-1.75404 -0.004,-2.29382 -0.40031,-1.95326 -1.58678,-3.56619 -3.37482,-4.58781 -1.98505,-1.13422 -4.56042,-1.23648 -6.7081,-0.26637 -0.71002,0.32071 -1.2549,0.69343 -1.90303,1.30174 -1.05649,0.99158 -1.65998,2.03527 -1.97385,3.41357 -0.13951,0.61262 -0.1499,1.82882 -0.0212,2.47679 0.36081,1.81613 1.42621,3.34007 3.05373,4.36802 0.92147,0.58201 1.89271,0.92631 3.09251,1.09631 0.0773,0.011 0.53082,0.0132 1.00773,0.005 0.66708,-0.0116 0.96443,-0.0362 1.28895,-0.10671 z" />
  </g>
</svg>
